<svg id="Layer_1" data-name="Layer 1" xmlns="http://www.w3.org/2000/svg" viewBox="0 0 211.16 368"><rect x="0.5" y="0.5" width="73.67" height="367" rx="22.71"/><path d="M51.45,1A22.24,22.24,0,0,1,73.67,23.21V344.78A22.25,22.25,0,0,1,51.45,367H23.21A22.24,22.24,0,0,1,1,344.78V23.21A22.23,22.23,0,0,1,23.21,1H51.45m0-1H23.21A23.21,23.21,0,0,0,0,23.21V344.78A23.22,23.22,0,0,0,23.21,368H51.45a23.23,23.23,0,0,0,23.22-23.22V23.21A23.22,23.22,0,0,0,51.45,0Z"/><rect x="136.99" y="0.5" width="73.67" height="367" rx="22.71"/><path d="M188,1a22.24,22.24,0,0,1,22.21,22.21V344.78A22.25,22.25,0,0,1,188,367H159.71a22.25,22.25,0,0,1-22.22-22.22V23.21A22.24,22.24,0,0,1,159.71,1H188m0-1H159.71a23.22,23.22,0,0,0-23.22,23.21V344.78A23.23,23.23,0,0,0,159.71,368H188a23.22,23.22,0,0,0,23.21-23.22V23.21A23.21,23.21,0,0,0,188,0Z"/></svg>